# xmcd
#
# Track frame offsets:
# 150
# 13294
# 26781
# 41213
# 54225
# 66834
# 80541
# 95389
# 109086
# 121515
# 134962
# 147889
# 161243
# 173246
# 185717
# 200827
# 212534
# 226807
# 240485
# 253153
#
# Disc length: 3560 seconds
#
# Revision: 0
# Processed by: cddbd v1.4PL0 Copyright (c) Steve Scherf et al.
# Submitted via: Axialis_AX_CDPlayer 2.6
#
DISCID=270de614
DTITLE=Bo Carter - Bo  Carter's Advice
DYEAR=1900
DGENRE=
TTITLE0=I'm an Old Bumble Bee
TTITLE1=Ram Rod Daddy
TTITLE2=Bo Carter's Advice
TTITLE3=Pussy Cat Blues
TTITLE4=I've Got the Whole World in My Hand
TTITLE5=I Want  You to Know
TTITLE6=Lets Get Drunk Again
TTITLE7=Old Devil
TTITLE8=Honey
TTITLE9=All Around Man
TTITLE10=Beans
TTITLE11=Blue Runner Blues
TTITLE12=Mashing That Thing
TTITLE13=Dinner Blues
TTITLE14=Ways Like a Crawfish
TTITLE15=Who's Been Here?
TTITLE16=Shake 'em on Down
TTITLE17=She's Gonna Crawl Back Home to You
TTITLE18=Howling Tom Cat Blues
TTITLE19=Arrangement for Me Blues
EXTD=
EXTT0=
EXTT1=
EXTT2=
EXTT3=
EXTT4=
EXTT5=
EXTT6=
EXTT7=
EXTT8=
EXTT9=
EXTT10=
EXTT11=
EXTT12=
EXTT13=
EXTT14=
EXTT15=
EXTT16=
EXTT17=
EXTT18=
EXTT19=
PLAYORDER=
